<?xml version="1.0" encoding="utf-8"?>
<!-- Generator: Adobe Illustrator 24.1.1, SVG Export Plug-In . SVG Version: 6.00 Build 0)  -->
<svg version="1.1" id="Layer_1" xmlns="http://www.w3.org/2000/svg" xmlns:xlink="http://www.w3.org/1999/xlink" x="0px" y="0px"
	 viewBox="0 0 512 512" style="enable-background:new 0 0 512 512;" xml:space="preserve">
<g>
	<path d="M0,0v512h399h57.3H512v-90.6h-55.8v-49.8H512v-90.6h-55.8v-49.8H512v-90.6h-55.8V90.6H512L512,0h-55.8H399L0,0L0,0z
		 M228.1,89.4c40.9,0,74,33.1,74,74c0,29-16.6,54-40.9,66.2l94.7,56.7h1.2v0.5v79.5h-258v-79.5v-0.5h1.2l94.7-56.7
		c-24.2-12.2-40.9-37.2-40.9-66.2C154.1,122.6,187.3,89.4,228.1,89.4L228.1,89.4z"/>
</g>
</svg>
